  0
SECTION
  2
HEADER
  9
$ACADVER
  1
AC1021
  9
$INSUNITS
 70
     4
  0
ENDSEC
  0
SECTION
  2
TABLES
  0
TABLE
  2
VPORT
  0
ENDTAB
  0
TABLE
  2
LTYPE
  0
LTYPE
  2
CENTER
 70
     0
  3
Center ____ _ ____ _ ____ _ ____ _ ____ _ ____
 72
    65
 73
     4
 40
50.0
 49
25.0
 49
-5.0
 49
0.5
 49
-5.0
 49
0.5
 49
-5.0
 49
0.5
 49
-5.0
  0
LTYPE
  2
DASHED
 70
     0
  3
Dashed __ __ __ __ __ __ __ __ __ __ __ __ __ _
 72
    65
 73
     2
 40
12.0
 49
9.0
 49
-3.0
  0
ENDTAB
  0
TABLE
  2
LAYER
  0
LAYER
  2
0
 70
     0
 62
     7
  6
Continuous
  0
LAYER
  2
CENTER
 70
     0
 62
     1
  6
CENTER
  0
LAYER
  2
SOLID
 70
     0
 62
     7
  6
Continuous
  0
LAYER
  2
DASHED
 70
     0
 62
     2
  6
DASHED
  0
LAYER
  2
HATCH
 70
     0
 62
     4
  6
Continuous
  0
LAYER
  2
THREAD
 70
     0
 62
     5
  6
Continuous
  0
LAYER
  2
KEYWAY
 70
     0
 62
     6
  6
Continuous
  0
LAYER
  2
DIM
 70
     0
 62
     3
  6
Continuous
  0
ENDTAB
  0
ENDSEC
  0
SECTION
  2
ENTITIES
  0
LINE
  8
CENTER
 10
15.0
 20
100.0
 11
145.0
 21
100.0
  0
LINE
  8
SOLID
 10
30.0
 20
91.0
 11
42.0
 21
91.0
  0
LINE
  8
SOLID
 10
30.0
 20
109.0
 11
42.0
 21
109.0
  0
LINE
  8
SOLID
 10
30.0
 20
91.0
 11
30.0
 21
109.0
  0
LINE
  8
SOLID
 10
30.0
 20
91.0
 11
32.0
 21
89.0
  0
LINE
  8
SOLID
 10
30.0
 20
109.0
 11
32.0
 21
111.0
  0
LINE
  8
SOLID
 10
42.0
 20
88.0
 11
67.0
 21
88.0
  0
LINE
  8
SOLID
 10
42.0
 20
112.0
 11
67.0
 21
112.0
  0
LINE
  8
SOLID
 10
42.0
 20
91.0
 11
42.0
 21
112.0
  0
LINE
  8
SOLID
 10
42.0
 20
109.0
 11
42.0
 21
88.0
  0
LINE
  8
SOLID
 10
67.0
 20
85.0
 11
85.0
 21
85.0
  0
LINE
  8
SOLID
 10
67.0
 20
115.0
 11
85.0
 21
115.0
  0
LINE
  8
SOLID
 10
67.0
 20
88.0
 11
67.0
 21
115.0
  0
LINE
  8
SOLID
 10
67.0
 20
112.0
 11
67.0
 21
85.0
  0
LINE
  8
SOLID
 10
85.0
 20
82.0
 11
100.0
 21
82.0
  0
LINE
  8
SOLID
 10
85.0
 20
118.0
 11
100.0
 21
118.0
  0
LINE
  8
SOLID
 10
85.0
 20
85.0
 11
85.0
 21
118.0
  0
LINE
  8
SOLID
 10
85.0
 20
115.0
 11
85.0
 21
82.0
  0
LINE
  8
THREAD
 10
100.0
 20
88.0
 11
130.0
 21
88.0
  0
LINE
  8
THREAD
 10
100.0
 20
112.0
 11
130.0
 21
112.0
  0
LINE
  8
THREAD
 10
100.0
 20
90.0
 11
130.0
 21
90.0
  0
LINE
  8
THREAD
 10
100.0
 20
110.0
 11
130.0
 21
110.0
  0
LINE
  8
SOLID
 10
100.0
 20
82.0
 11
100.0
 21
112.0
  0
LINE
  8
SOLID
 10
100.0
 20
118.0
 11
100.0
 21
88.0
  0
LINE
  8
THREAD
 10
100.0
 20
88.0
 11
101.0
 21
90.0
  0
LINE
  8
THREAD
 10
101.0
 20
90.0
 11
102.0
 21
88.0
  0
LINE
  8
THREAD
 10
100.0
 20
112.0
 11
101.0
 21
110.0
  0
LINE
  8
THREAD
 10
101.0
 20
110.0
 11
102.0
 21
112.0
  0
LINE
  8
THREAD
 10
102.0
 20
88.0
 11
103.0
 21
90.0
  0
LINE
  8
THREAD
 10
103.0
 20
90.0
 11
104.0
 21
88.0
  0
LINE
  8
THREAD
 10
102.0
 20
112.0
 11
103.0
 21
110.0
  0
LINE
  8
THREAD
 10
103.0
 20
110.0
 11
104.0
 21
112.0
  0
LINE
  8
THREAD
 10
104.0
 20
88.0
 11
105.0
 21
90.0
  0
LINE
  8
THREAD
 10
105.0
 20
90.0
 11
106.0
 21
88.0
  0
LINE
  8
THREAD
 10
104.0
 20
112.0
 11
105.0
 21
110.0
  0
LINE
  8
THREAD
 10
105.0
 20
110.0
 11
106.0
 21
112.0
  0
LINE
  8
THREAD
 10
106.0
 20
88.0
 11
107.0
 21
90.0
  0
LINE
  8
THREAD
 10
107.0
 20
90.0
 11
108.0
 21
88.0
  0
LINE
  8
THREAD
 10
106.0
 20
112.0
 11
107.0
 21
110.0
  0
LINE
  8
THREAD
 10
107.0
 20
110.0
 11
108.0
 21
112.0
  0
LINE
  8
THREAD
 10
108.0
 20
88.0
 11
109.0
 21
90.0
  0
LINE
  8
THREAD
 10
109.0
 20
90.0
 11
110.0
 21
88.0
  0
LINE
  8
THREAD
 10
108.0
 20
112.0
 11
109.0
 21
110.0
  0
LINE
  8
THREAD
 10
109.0
 20
110.0
 11
110.0
 21
112.0
  0
LINE
  8
THREAD
 10
110.0
 20
88.0
 11
111.0
 21
90.0
  0
LINE
  8
THREAD
 10
111.0
 20
90.0
 11
112.0
 21
88.0
  0
LINE
  8
THREAD
 10
110.0
 20
112.0
 11
111.0
 21
110.0
  0
LINE
  8
THREAD
 10
111.0
 20
110.0
 11
112.0
 21
112.0
  0
LINE
  8
THREAD
 10
112.0
 20
88.0
 11
113.0
 21
90.0
  0
LINE
  8
THREAD
 10
113.0
 20
90.0
 11
114.0
 21
88.0
  0
LINE
  8
THREAD
 10
112.0
 20
112.0
 11
113.0
 21
110.0
  0
LINE
  8
THREAD
 10
113.0
 20
110.0
 11
114.0
 21
112.0
  0
LINE
  8
THREAD
 10
114.0
 20
88.0
 11
115.0
 21
90.0
  0
LINE
  8
THREAD
 10
115.0
 20
90.0
 11
116.0
 21
88.0
  0
LINE
  8
THREAD
 10
114.0
 20
112.0
 11
115.0
 21
110.0
  0
LINE
  8
THREAD
 10
115.0
 20
110.0
 11
116.0
 21
112.0
  0
LINE
  8
THREAD
 10
116.0
 20
88.0
 11
117.0
 21
90.0
  0
LINE
  8
THREAD
 10
117.0
 20
90.0
 11
118.0
 21
88.0
  0
LINE
  8
THREAD
 10
116.0
 20
112.0
 11
117.0
 21
110.0
  0
LINE
  8
THREAD
 10
117.0
 20
110.0
 11
118.0
 21
112.0
  0
LINE
  8
THREAD
 10
118.0
 20
88.0
 11
119.0
 21
90.0
  0
LINE
  8
THREAD
 10
119.0
 20
90.0
 11
120.0
 21
88.0
  0
LINE
  8
THREAD
 10
118.0
 20
112.0
 11
119.0
 21
110.0
  0
LINE
  8
THREAD
 10
119.0
 20
110.0
 11
120.0
 21
112.0
  0
LINE
  8
THREAD
 10
120.0
 20
88.0
 11
121.0
 21
90.0
  0
LINE
  8
THREAD
 10
121.0
 20
90.0
 11
122.0
 21
88.0
  0
LINE
  8
THREAD
 10
120.0
 20
112.0
 11
121.0
 21
110.0
  0
LINE
  8
THREAD
 10
121.0
 20
110.0
 11
122.0
 21
112.0
  0
LINE
  8
THREAD
 10
122.0
 20
88.0
 11
123.0
 21
90.0
  0
LINE
  8
THREAD
 10
123.0
 20
90.0
 11
124.0
 21
88.0
  0
LINE
  8
THREAD
 10
122.0
 20
112.0
 11
123.0
 21
110.0
  0
LINE
  8
THREAD
 10
123.0
 20
110.0
 11
124.0
 21
112.0
  0
LINE
  8
THREAD
 10
124.0
 20
88.0
 11
125.0
 21
90.0
  0
LINE
  8
THREAD
 10
125.0
 20
90.0
 11
126.0
 21
88.0
  0
LINE
  8
THREAD
 10
124.0
 20
112.0
 11
125.0
 21
110.0
  0
LINE
  8
THREAD
 10
125.0
 20
110.0
 11
126.0
 21
112.0
  0
LINE
  8
THREAD
 10
126.0
 20
88.0
 11
127.0
 21
90.0
  0
LINE
  8
THREAD
 10
127.0
 20
90.0
 11
128.0
 21
88.0
  0
LINE
  8
THREAD
 10
126.0
 20
112.0
 11
127.0
 21
110.0
  0
LINE
  8
THREAD
 10
127.0
 20
110.0
 11
128.0
 21
112.0
  0
LINE
  8
THREAD
 10
128.0
 20
88.0
 11
129.0
 21
90.0
  0
LINE
  8
THREAD
 10
129.0
 20
90.0
 11
130.0
 21
88.0
  0
LINE
  8
THREAD
 10
128.0
 20
112.0
 11
129.0
 21
110.0
  0
LINE
  8
THREAD
 10
129.0
 20
110.0
 11
130.0
 21
112.0
  0
LINE
  8
SOLID
 10
130.0
 20
91.0
 11
145.0
 21
91.0
  0
LINE
  8
SOLID
 10
130.0
 20
109.0
 11
145.0
 21
109.0
  0
LINE
  8
SOLID
 10
130.0
 20
88.0
 11
130.0
 21
109.0
  0
LINE
  8
SOLID
 10
130.0
 20
112.0
 11
130.0
 21
91.0
  0
LINE
  8
SOLID
 10
145.0
 20
91.0
 11
145.0
 21
109.0
  0
LINE
  8
SOLID
 10
145.0
 20
91.0
 11
143.0
 21
89.0
  0
LINE
  8
SOLID
 10
145.0
 20
109.0
 11
143.0
 21
111.0
  0
LINE
  8
KEYWAY
 10
47.0
 20
88.0
 11
61.0
 21
88.0
  0
LINE
  8
KEYWAY
 10
47.0
 20
88.0
 11
47.0
 21
92.0
  0
LINE
  8
KEYWAY
 10
61.0
 20
88.0
 11
61.0
 21
92.0
  0
ARC
  8
KEYWAY
 10
47.0
 20
90.0
 40
2
 50
270
 51
90
  0
ARC
  8
KEYWAY
 10
61.0
 20
90.0
 40
2
 50
90
 51
270
  0
LINE
  8
KEYWAY
 10
47.0
 20
112.0
 11
61.0
 21
112.0
  0
LINE
  8
KEYWAY
 10
47.0
 20
112.0
 11
47.0
 21
108.0
  0
LINE
  8
KEYWAY
 10
61.0
 20
112.0
 11
61.0
 21
108.0
  0
ARC
  8
KEYWAY
 10
47.0
 20
110.0
 40
2
 50
90
 51
270
  0
ARC
  8
KEYWAY
 10
61.0
 20
110.0
 40
2
 50
270
 51
90
  0
LINE
  8
DASHED
 10
35.0
 20
95.0
 11
140.0
 21
95.0
  0
LINE
  8
DASHED
 10
35.0
 20
105.0
 11
140.0
 21
105.0
  0
CIRCLE
  8
SOLID
 10
185.0
 20
100.0
 40
18
  0
CIRCLE
  8
SOLID
 10
185.0
 20
100.0
 40
12
  0
CIRCLE
  8
DASHED
 10
185.0
 20
100.0
 40
5
  0
LINE
  8
CENTER
 10
163.0
 20
100.0
 11
207.0
 21
100.0
  0
LINE
  8
CENTER
 10
185.0
 20
78.0
 11
185.0
 21
122.0
  0
LINE
  8
HATCH
 10
181.11091270347396
 20
88.33273811042196
 11
177.57537879754125
 21
91.8682720163547
  0
LINE
  8
HATCH
 10
180.40380592228743
 20
89.03984489160851
 11
176.86827201635472
 21
92.57537879754125
  0
LINE
  8
HATCH
 10
179.69669914110088
 20
89.74695167279505
 11
176.16116523516817
 21
93.28248557872779
  0
LINE
  8
HATCH
 10
178.98959235991433
 20
90.4540584539816
 11
175.45405845398162
 21
93.98959235991434
  0
LINE
  8
HATCH
 10
178.28248557872777
 20
91.16116523516816
 11
174.74695167279506
 21
94.6966991411009
  0
LINE
  8
HATCH
 10
177.57537879754122
 20
91.8682720163547
 11
174.0398448916085
 21
95.40380592228743
  0
LINE
  8
HATCH
 10
176.8682720163547
 20
92.57537879754125
 11
173.33273811042199
 21
96.11091270347399
  0
LINE
  8
HATCH
 10
185.35355339059328
 20
86.91852454804888
 11
181.81801948466057
 21
90.45405845398162
  0
LINE
  8
HATCH
 10
184.64644660940672
 20
87.62563132923542
 11
181.110912703474
 21
91.16116523516816
  0
LINE
  8
HATCH
 10
183.93933982822017
 20
88.33273811042197
 11
180.40380592228746
 21
91.86827201635471
  0
LINE
  8
HATCH
 10
183.23223304703362
 20
89.03984489160852
 11
179.6966991411009
 21
92.57537879754126
  0
LINE
  8
HATCH
 10
182.52512626584706
 20
89.74695167279506
 11
178.98959235991435
 21
93.2824855787278
  0
LINE
  8
HATCH
 10
181.81801948466054
 20
90.45405845398162
 11
178.28248557872783
 21
93.98959235991435
  0
LINE
  8
HATCH
 10
181.11091270347399
 20
91.16116523516816
 11
177.57537879754128
 21
94.6966991411009
  0
LINE
  8
HATCH
 10
180.40380592228743
 20
91.86827201635471
 11
176.86827201635472
 21
95.40380592228745
  0
LINE
  8
HATCH
 10
179.69669914110088
 20
92.57537879754126
 11
176.16116523516817
 21
96.110912703474
  0
LINE
  8
HATCH
 10
178.98959235991433
 20
93.2824855787278
 11
175.45405845398162
 21
96.81801948466054
  0
LINE
  8
HATCH
 10
178.2824855787278
 20
93.98959235991435
 11
174.7469516727951
 21
97.52512626584709
  0
LINE
  8
HATCH
 10
177.57537879754125
 20
94.6966991411009
 11
174.03984489160854
 21
98.23223304703363
  0
LINE
  8
HATCH
 10
176.8682720163547
 20
95.40380592228745
 11
173.33273811042199
 21
98.93933982822018
  0
LINE
  8
HATCH
 10
176.16116523516814
 20
96.110912703474
 11
172.62563132923543
 21
99.64644660940674
  0
LINE
  8
HATCH
 10
175.4540584539816
 20
96.81801948466054
 11
171.91852454804888
 21
100.35355339059328
  0
LINE
  8
HATCH
 10
188.18198051533943
 20
86.91852454804888
 11
184.64644660940672
 21
90.45405845398162
  0
LINE
  8
HATCH
 10
187.47487373415288
 20
87.62563132923542
 11
183.93933982822017
 21
91.16116523516816
  0
LINE
  8
HATCH
 10
186.76776695296635
 20
88.33273811042197
 11
183.23223304703365
 21
91.86827201635471
  0
LINE
  8
HATCH
 10
186.0606601717798
 20
89.03984489160851
 11
182.5251262658471
 21
92.57537879754125
  0
LINE
  8
HATCH
 10
185.35355339059325
 20
89.74695167279506
 11
181.81801948466054
 21
93.2824855787278
  0
LINE
  8
HATCH
 10
184.6464466094067
 20
90.45405845398162
 11
181.11091270347399
 21
93.98959235991435
  0
LINE
  8
HATCH
 10
183.93933982822014
 20
91.16116523516816
 11
180.40380592228743
 21
94.6966991411009
  0
LINE
  8
HATCH
 10
183.23223304703362
 20
91.86827201635471
 11
179.6966991411009
 21
95.40380592228745
  0
LINE
  8
HATCH
 10
182.52512626584706
 20
92.57537879754125
 11
178.98959235991435
 21
96.11091270347399
  0
LINE
  8
HATCH
 10
181.8180194846605
 20
93.2824855787278
 11
178.2824855787278
 21
96.81801948466054
  0
LINE
  8
HATCH
 10
181.11091270347396
 20
93.98959235991435
 11
177.57537879754125
 21
97.52512626584709
  0
LINE
  8
HATCH
 10
180.4038059222874
 20
94.6966991411009
 11
176.8682720163547
 21
98.23223304703363
  0
LINE
  8
HATCH
 10
179.69669914110088
 20
95.40380592228745
 11
176.16116523516817
 21
98.93933982822018
  0
LINE
  8
HATCH
 10
178.98959235991433
 20
96.11091270347399
 11
175.45405845398162
 21
99.64644660940672
  0
LINE
  8
HATCH
 10
178.28248557872777
 20
96.81801948466054
 11
174.74695167279506
 21
100.35355339059328
  0
LINE
  8
HATCH
 10
177.57537879754122
 20
97.52512626584709
 11
174.0398448916085
 21
101.06066017177983
  0
LINE
  8
HATCH
 10
176.86827201635467
 20
98.23223304703363
 11
173.33273811042196
 21
101.76776695296637
  0
LINE
  8
HATCH
 10
176.16116523516814
 20
98.93933982822018
 11
172.62563132923543
 21
102.47487373415292
  0
LINE
  8
HATCH
 10
175.4540584539816
 20
99.64644660940672
 11
171.91852454804888
 21
103.18198051533946
  0
LINE
  8
HATCH
 10
190.3033008588991
 20
87.62563132923542
 11
186.76776695296638
 21
91.16116523516816
  0
LINE
  8
HATCH
 10
189.59619407771254
 20
88.33273811042197
 11
186.06066017177983
 21
91.86827201635471
  0
LINE
  8
HATCH
 10
188.889087296526
 20
89.03984489160851
 11
185.35355339059328
 21
92.57537879754125
  0
LINE
  8
HATCH
 10
188.18198051533946
 20
89.74695167279506
 11
184.64644660940675
 21
93.2824855787278
  0
LINE
  8
HATCH
 10
187.4748737341529
 20
90.4540584539816
 11
183.9393398282202
 21
93.98959235991434
  0
LINE
  8
HATCH
 10
186.76776695296635
 20
91.16116523516816
 11
183.23223304703365
 21
94.6966991411009
  0
LINE
  8
HATCH
 10
186.0606601717798
 20
91.86827201635471
 11
182.5251262658471
 21
95.40380592228745
  0
LINE
  8
HATCH
 10
185.35355339059325
 20
92.57537879754125
 11
181.81801948466054
 21
96.11091270347399
  0
LINE
  8
HATCH
 10
181.11091270347399
 20
96.81801948466054
 11
177.57537879754128
 21
100.35355339059328
  0
LINE
  8
HATCH
 10
180.40380592228743
 20
97.52512626584708
 11
176.86827201635472
 21
101.06066017177982
  0
LINE
  8
HATCH
 10
179.69669914110088
 20
98.23223304703363
 11
176.16116523516817
 21
101.76776695296637
  0
LINE
  8
HATCH
 10
178.98959235991433
 20
98.93933982822018
 11
175.45405845398162
 21
102.47487373415292
  0
LINE
  8
HATCH
 10
178.28248557872777
 20
99.64644660940672
 11
174.74695167279506
 21
103.18198051533946
  0
LINE
  8
HATCH
 10
177.57537879754125
 20
100.35355339059328
 11
174.03984489160854
 21
103.88908729652601
  0
LINE
  8
HATCH
 10
176.8682720163547
 20
101.06066017177982
 11
173.33273811042199
 21
104.59619407771255
  0
LINE
  8
HATCH
 10
176.16116523516814
 20
101.76776695296637
 11
172.62563132923543
 21
105.3033008588991
  0
LINE
  8
HATCH
 10
192.42462120245875
 20
88.33273811042196
 11
188.88908729652604
 21
91.8682720163547
  0
LINE
  8
HATCH
 10
191.7175144212722
 20
89.03984489160851
 11
188.1819805153395
 21
92.57537879754125
  0
LINE
  8
HATCH
 10
191.01040764008565
 20
89.74695167279506
 11
187.47487373415294
 21
93.2824855787278
  0
LINE
  8
HATCH
 10
190.3033008588991
 20
90.4540584539816
 11
186.76776695296638
 21
93.98959235991434
  0
LINE
  8
HATCH
 10
189.59619407771257
 20
91.16116523516816
 11
186.06066017177986
 21
94.6966991411009
  0
LINE
  8
HATCH
 10
188.88908729652601
 20
91.8682720163547
 11
185.3535533905933
 21
95.40380592228743
  0
LINE
  8
HATCH
 10
188.18198051533946
 20
92.57537879754125
 11
184.64644660940675
 21
96.11091270347399
  0
LINE
  8
HATCH
 10
181.11091270347399
 20
99.64644660940672
 11
177.57537879754128
 21
103.18198051533946
  0
LINE
  8
HATCH
 10
180.40380592228743
 20
100.35355339059328
 11
176.86827201635472
 21
103.88908729652601
  0
LINE
  8
HATCH
 10
179.69669914110088
 20
101.06066017177982
 11
176.16116523516817
 21
104.59619407771255
  0
LINE
  8
HATCH
 10
178.98959235991435
 20
101.76776695296637
 11
175.45405845398165
 21
105.3033008588991
  0
LINE
  8
HATCH
 10
178.2824855787278
 20
102.47487373415291
 11
174.7469516727951
 21
106.01040764008565
  0
LINE
  8
HATCH
 10
177.57537879754125
 20
103.18198051533946
 11
174.03984489160854
 21
106.7175144212722
  0
LINE
  8
HATCH
 10
176.8682720163547
 20
103.88908729652601
 11
173.33273811042199
 21
107.42462120245875
  0
LINE
  8
HATCH
 10
193.83883476483183
 20
89.74695167279505
 11
190.30330085889912
 21
93.28248557872779
  0
LINE
  8
HATCH
 10
193.13172798364528
 20
90.4540584539816
 11
189.59619407771257
 21
93.98959235991434
  0
LINE
  8
HATCH
 10
192.42462120245872
 20
91.16116523516816
 11
188.88908729652601
 21
94.6966991411009
  0
LINE
  8
HATCH
 10
191.71751442127217
 20
91.8682720163547
 11
188.18198051533946
 21
95.40380592228743
  0
LINE
  8
HATCH
 10
191.01040764008565
 20
92.57537879754125
 11
187.47487373415294
 21
96.11091270347399
  0
LINE
  8
HATCH
 10
190.3033008588991
 20
93.28248557872779
 11
186.76776695296638
 21
96.81801948466052
  0
LINE
  8
HATCH
 10
181.8180194846605
 20
101.76776695296637
 11
178.2824855787278
 21
105.3033008588991
  0
LINE
  8
HATCH
 10
181.11091270347396
 20
102.47487373415291
 11
177.57537879754125
 21
106.01040764008565
  0
LINE
  8
HATCH
 10
180.40380592228743
 20
103.18198051533946
 11
176.86827201635472
 21
106.7175144212722
  0
LINE
  8
HATCH
 10
179.69669914110088
 20
103.889087296526
 11
176.16116523516817
 21
107.42462120245874
  0
LINE
  8
HATCH
 10
178.98959235991433
 20
104.59619407771255
 11
175.45405845398162
 21
108.13172798364529
  0
LINE
  8
HATCH
 10
178.28248557872777
 20
105.3033008588991
 11
174.74695167279506
 21
108.83883476483184
  0
LINE
  8
HATCH
 10
195.25304832720494
 20
91.16116523516816
 11
191.71751442127223
 21
94.6966991411009
  0
LINE
  8
HATCH
 10
194.54594154601838
 20
91.86827201635471
 11
191.01040764008567
 21
95.40380592228745
  0
LINE
  8
HATCH
 10
193.83883476483183
 20
92.57537879754126
 11
190.30330085889912
 21
96.110912703474
  0
LINE
  8
HATCH
 10
193.13172798364528
 20
93.2824855787278
 11
189.59619407771257
 21
96.81801948466054
  0
LINE
  8
HATCH
 10
192.42462120245875
 20
93.98959235991435
 11
188.88908729652604
 21
97.52512626584709
  0
LINE
  8
HATCH
 10
191.7175144212722
 20
94.6966991411009
 11
188.1819805153395
 21
98.23223304703363
  0
LINE
  8
HATCH
 10
183.23223304703362
 20
103.18198051533948
 11
179.6966991411009
 21
106.71751442127221
  0
LINE
  8
HATCH
 10
182.52512626584706
 20
103.88908729652601
 11
178.98959235991435
 21
107.42462120245875
  0
LINE
  8
HATCH
 10
181.81801948466054
 20
104.59619407771257
 11
178.28248557872783
 21
108.1317279836453
  0
LINE
  8
HATCH
 10
181.11091270347399
 20
105.3033008588991
 11
177.57537879754128
 21
108.83883476483184
  0
LINE
  8
HATCH
 10
180.40380592228743
 20
106.01040764008566
 11
176.86827201635472
 21
109.5459415460184
  0
LINE
  8
HATCH
 10
179.69669914110088
 20
106.71751442127221
 11
176.16116523516817
 21
110.25304832720495
  0
LINE
  8
HATCH
 10
196.66726188957801
 20
92.57537879754125
 11
193.1317279836453
 21
96.11091270347399
  0
LINE
  8
HATCH
 10
195.96015510839146
 20
93.2824855787278
 11
192.42462120245875
 21
96.81801948466054
  0
LINE
  8
HATCH
 10
195.2530483272049
 20
93.98959235991435
 11
191.7175144212722
 21
97.52512626584709
  0
LINE
  8
HATCH
 10
194.54594154601835
 20
94.6966991411009
 11
191.01040764008565
 21
98.23223304703363
  0
LINE
  8
HATCH
 10
193.83883476483183
 20
95.40380592228745
 11
190.30330085889912
 21
98.93933982822018
  0
LINE
  8
HATCH
 10
193.13172798364528
 20
96.11091270347399
 11
189.59619407771257
 21
99.64644660940672
  0
LINE
  8
HATCH
 10
192.42462120245872
 20
96.81801948466054
 11
188.88908729652601
 21
100.35355339059328
  0
LINE
  8
HATCH
 10
185.35355339059325
 20
103.88908729652601
 11
181.81801948466054
 21
107.42462120245875
  0
LINE
  8
HATCH
 10
184.6464466094067
 20
104.59619407771257
 11
181.11091270347399
 21
108.1317279836453
  0
LINE
  8
HATCH
 10
183.93933982822014
 20
105.3033008588991
 11
180.40380592228743
 21
108.83883476483184
  0
LINE
  8
HATCH
 10
183.23223304703362
 20
106.01040764008566
 11
179.6966991411009
 21
109.5459415460184
  0
LINE
  8
HATCH
 10
182.52512626584706
 20
106.7175144212722
 11
178.98959235991435
 21
110.25304832720494
  0
LINE
  8
HATCH
 10
181.8180194846605
 20
107.42462120245875
 11
178.2824855787278
 21
110.96015510839149
  0
LINE
  8
HATCH
 10
181.11091270347396
 20
108.1317279836453
 11
177.57537879754125
 21
111.66726188957804
  0
LINE
  8
HATCH
 10
197.37436867076457
 20
94.6966991411009
 11
193.83883476483186
 21
98.23223304703363
  0
LINE
  8
HATCH
 10
196.66726188957801
 20
95.40380592228745
 11
193.1317279836453
 21
98.93933982822018
  0
LINE
  8
HATCH
 10
195.96015510839146
 20
96.11091270347399
 11
192.42462120245875
 21
99.64644660940672
  0
LINE
  8
HATCH
 10
195.25304832720494
 20
96.81801948466054
 11
191.71751442127223
 21
100.35355339059328
  0
LINE
  8
HATCH
 10
194.54594154601838
 20
97.52512626584708
 11
191.01040764008567
 21
101.06066017177982
  0
LINE
  8
HATCH
 10
193.83883476483183
 20
98.23223304703363
 11
190.30330085889912
 21
101.76776695296637
  0
LINE
  8
HATCH
 10
193.13172798364528
 20
98.93933982822018
 11
189.59619407771257
 21
102.47487373415292
  0
LINE
  8
HATCH
 10
192.42462120245872
 20
99.64644660940672
 11
188.88908729652601
 21
103.18198051533946
  0
LINE
  8
HATCH
 10
188.18198051533946
 20
103.88908729652601
 11
184.64644660940675
 21
107.42462120245875
  0
LINE
  8
HATCH
 10
187.4748737341529
 20
104.59619407771255
 11
183.9393398282202
 21
108.13172798364529
  0
LINE
  8
HATCH
 10
186.76776695296635
 20
105.3033008588991
 11
183.23223304703365
 21
108.83883476483184
  0
LINE
  8
HATCH
 10
186.0606601717798
 20
106.01040764008566
 11
182.5251262658471
 21
109.5459415460184
  0
LINE
  8
HATCH
 10
185.35355339059325
 20
106.7175144212722
 11
181.81801948466054
 21
110.25304832720494
  0
LINE
  8
HATCH
 10
184.64644660940672
 20
107.42462120245875
 11
181.110912703474
 21
110.96015510839149
  0
LINE
  8
HATCH
 10
183.93933982822017
 20
108.13172798364529
 11
180.40380592228746
 21
111.66726188957803
  0
LINE
  8
HATCH
 10
183.23223304703362
 20
108.83883476483184
 11
179.6966991411009
 21
112.37436867076458
  0
LINE
  8
HATCH
 10
198.08147545195112
 20
96.81801948466054
 11
194.5459415460184
 21
100.35355339059328
  0
LINE
  8
HATCH
 10
197.37436867076457
 20
97.52512626584708
 11
193.83883476483186
 21
101.06066017177982
  0
LINE
  8
HATCH
 10
196.66726188957804
 20
98.23223304703363
 11
193.13172798364533
 21
101.76776695296637
  0
LINE
  8
HATCH
 10
195.9601551083915
 20
98.93933982822017
 11
192.42462120245878
 21
102.47487373415291
  0
LINE
  8
HATCH
 10
195.25304832720494
 20
99.64644660940672
 11
191.71751442127223
 21
103.18198051533946
  0
LINE
  8
HATCH
 10
194.54594154601838
 20
100.35355339059328
 11
191.01040764008567
 21
103.88908729652601
  0
LINE
  8
HATCH
 10
193.83883476483183
 20
101.06066017177982
 11
190.30330085889912
 21
104.59619407771255
  0
LINE
  8
HATCH
 10
193.1317279836453
 20
101.76776695296637
 11
189.5961940777126
 21
105.3033008588991
  0
LINE
  8
HATCH
 10
192.42462120245875
 20
102.47487373415291
 11
188.88908729652604
 21
106.01040764008565
  0
LINE
  8
HATCH
 10
191.7175144212722
 20
103.18198051533946
 11
188.1819805153395
 21
106.7175144212722
  0
LINE
  8
HATCH
 10
191.01040764008565
 20
103.88908729652601
 11
187.47487373415294
 21
107.42462120245875
  0
LINE
  8
HATCH
 10
190.3033008588991
 20
104.59619407771255
 11
186.76776695296638
 21
108.13172798364529
  0
LINE
  8
HATCH
 10
189.59619407771257
 20
105.3033008588991
 11
186.06066017177986
 21
108.83883476483184
  0
LINE
  8
HATCH
 10
188.88908729652601
 20
106.01040764008565
 11
185.3535533905933
 21
109.54594154601838
  0
LINE
  8
HATCH
 10
188.18198051533946
 20
106.7175144212722
 11
184.64644660940675
 21
110.25304832720494
  0
LINE
  8
HATCH
 10
187.4748737341529
 20
107.42462120245875
 11
183.9393398282202
 21
110.96015510839149
  0
LINE
  8
HATCH
 10
186.76776695296635
 20
108.13172798364529
 11
183.23223304703365
 21
111.66726188957803
  0
LINE
  8
HATCH
 10
186.06066017177983
 20
108.83883476483184
 11
182.52512626584712
 21
112.37436867076458
  0
LINE
  8
HATCH
 10
185.35355339059328
 20
109.54594154601838
 11
181.81801948466057
 21
113.08147545195112
  0
LINE
  8
HATCH
 10
198.08147545195112
 20
99.64644660940672
 11
194.5459415460184
 21
103.18198051533946
  0
LINE
  8
HATCH
 10
197.37436867076457
 20
100.35355339059326
 11
193.83883476483186
 21
103.889087296526
  0
LINE
  8
HATCH
 10
196.66726188957801
 20
101.06066017177982
 11
193.1317279836453
 21
104.59619407771255
  0
LINE
  8
HATCH
 10
195.96015510839146
 20
101.76776695296637
 11
192.42462120245875
 21
105.3033008588991
  0
LINE
  8
HATCH
 10
195.2530483272049
 20
102.47487373415291
 11
191.7175144212722
 21
106.01040764008565
  0
LINE
  8
HATCH
 10
194.54594154601838
 20
103.18198051533946
 11
191.01040764008567
 21
106.7175144212722
  0
LINE
  8
HATCH
 10
193.83883476483183
 20
103.889087296526
 11
190.30330085889912
 21
107.42462120245874
  0
LINE
  8
HATCH
 10
193.13172798364528
 20
104.59619407771255
 11
189.59619407771257
 21
108.13172798364529
  0
LINE
  8
HATCH
 10
192.42462120245872
 20
105.3033008588991
 11
188.88908729652601
 21
108.83883476483184
  0
LINE
  8
HATCH
 10
191.71751442127217
 20
106.01040764008565
 11
188.18198051533946
 21
109.54594154601838
  0
LINE
  8
HATCH
 10
191.01040764008565
 20
106.7175144212722
 11
187.47487373415294
 21
110.25304832720494
  0
LINE
  8
HATCH
 10
190.3033008588991
 20
107.42462120245874
 11
186.76776695296638
 21
110.96015510839148
  0
LINE
  8
HATCH
 10
189.59619407771254
 20
108.13172798364529
 11
186.06066017177983
 21
111.66726188957803
  0
LINE
  8
HATCH
 10
188.889087296526
 20
108.83883476483184
 11
185.35355339059328
 21
112.37436867076458
  0
LINE
  8
HATCH
 10
188.18198051533943
 20
109.54594154601838
 11
184.64644660940672
 21
113.08147545195112
  0
LINE
  8
HATCH
 10
196.66726188957801
 20
103.88908729652601
 11
193.1317279836453
 21
107.42462120245875
  0
LINE
  8
HATCH
 10
195.9601551083915
 20
104.59619407771257
 11
192.42462120245878
 21
108.1317279836453
  0
LINE
  8
HATCH
 10
195.25304832720494
 20
105.3033008588991
 11
191.71751442127223
 21
108.83883476483184
  0
LINE
  8
HATCH
 10
194.54594154601838
 20
106.01040764008566
 11
191.01040764008567
 21
109.5459415460184
  0
LINE
  8
HATCH
 10
193.83883476483183
 20
106.71751442127221
 11
190.30330085889912
 21
110.25304832720495
  0
LINE
  8
HATCH
 10
193.13172798364528
 20
107.42462120245875
 11
189.59619407771257
 21
110.96015510839149
  0
LINE
  8
HATCH
 10
192.42462120245875
 20
108.1317279836453
 11
188.88908729652604
 21
111.66726188957804
  0
ENDSEC
  0
EOF
